<mxfile modified="2023-12-10T19:12:34.544Z" host="Electron" agent="5.0 (Windows NT 10.0; Win64; x64) AppleWebKit/537.36 (KHTML, like Gecko) draw.io/20.8.16 Chrome/106.0.5249.199 Electron/21.4.0 Safari/537.36" etag="ubDu5C8SXRq_tmI0XFMq" compressed="false" version="20.8.16" type="device">
  <diagram id="-Gx0nPdY1oggwIX1bnBO" name="Page-1">
    <mxGraphModel dx="1036" dy="623" grid="1" gridSize="10" guides="1" tooltips="1" connect="1" arrows="1" fold="1" page="1" pageScale="1" pageWidth="850" pageHeight="1100" math="0" shadow="0">
      <root>
        <mxCell id="0" />
        <mxCell id="1" parent="0" />
        <mxCell id="Yj-2tN5jG5h_alvIyrq5-1" value="testing" style="rounded=0;whiteSpace=wrap;html=1;horizontal=0;align=left;dashed=1;" vertex="1" parent="1">
          <mxGeometry x="130" y="340" width="20" height="10" as="geometry" />
        </mxCell>
        <mxCell id="Yj-2tN5jG5h_alvIyrq5-2" value="" style="endArrow=classic;html=1;rounded=0;" edge="1" parent="1">
          <mxGeometry width="50" height="50" relative="1" as="geometry">
            <mxPoint x="120" y="360" as="sourcePoint" />
            <mxPoint x="720" y="360" as="targetPoint" />
          </mxGeometry>
        </mxCell>
        <mxCell id="Yj-2tN5jG5h_alvIyrq5-3" value="" style="endArrow=classic;html=1;rounded=0;exitX=2;exitY=1.08;exitDx=0;exitDy=0;exitPerimeter=0;" edge="1" parent="1" source="Yj-2tN5jG5h_alvIyrq5-4">
          <mxGeometry width="50" height="50" relative="1" as="geometry">
            <mxPoint x="120" y="350" as="sourcePoint" />
            <mxPoint x="120" y="120" as="targetPoint" />
          </mxGeometry>
        </mxCell>
        <mxCell id="Yj-2tN5jG5h_alvIyrq5-4" value="Effort" style="text;html=1;strokeColor=none;fillColor=none;align=left;verticalAlign=middle;whiteSpace=wrap;rounded=0;horizontal=0;" vertex="1" parent="1">
          <mxGeometry x="100" y="240" width="10" height="110" as="geometry" />
        </mxCell>
        <mxCell id="Yj-2tN5jG5h_alvIyrq5-6" value="testing" style="rounded=0;whiteSpace=wrap;html=1;horizontal=0;align=left;dashed=1;" vertex="1" parent="1">
          <mxGeometry x="170" y="320" width="20" height="30" as="geometry" />
        </mxCell>
        <mxCell id="Yj-2tN5jG5h_alvIyrq5-7" value="testing" style="rounded=0;whiteSpace=wrap;html=1;horizontal=0;align=left;dashed=1;" vertex="1" parent="1">
          <mxGeometry x="250" y="260" width="20" height="90" as="geometry" />
        </mxCell>
        <mxCell id="Yj-2tN5jG5h_alvIyrq5-8" value="" style="ellipse;whiteSpace=wrap;html=1;aspect=fixed;" vertex="1" parent="1">
          <mxGeometry x="190" y="350" width="20" height="20" as="geometry" />
        </mxCell>
        <mxCell id="Yj-2tN5jG5h_alvIyrq5-9" value="" style="ellipse;whiteSpace=wrap;html=1;aspect=fixed;" vertex="1" parent="1">
          <mxGeometry x="270" y="350" width="20" height="20" as="geometry" />
        </mxCell>
        <mxCell id="Yj-2tN5jG5h_alvIyrq5-10" value="" style="ellipse;whiteSpace=wrap;html=1;aspect=fixed;" vertex="1" parent="1">
          <mxGeometry x="430" y="350" width="20" height="20" as="geometry" />
        </mxCell>
        <mxCell id="Yj-2tN5jG5h_alvIyrq5-11" value="" style="ellipse;whiteSpace=wrap;html=1;aspect=fixed;" vertex="1" parent="1">
          <mxGeometry x="150" y="350" width="20" height="20" as="geometry" />
        </mxCell>
        <mxCell id="Yj-2tN5jG5h_alvIyrq5-12" value="testing" style="rounded=0;whiteSpace=wrap;html=1;horizontal=0;align=left;dashed=1;" vertex="1" parent="1">
          <mxGeometry x="410" y="120" width="20" height="230" as="geometry" />
        </mxCell>
        <mxCell id="Yj-2tN5jG5h_alvIyrq5-13" value="R1" style="text;html=1;strokeColor=none;fillColor=none;align=left;verticalAlign=middle;whiteSpace=wrap;rounded=0;" vertex="1" parent="1">
          <mxGeometry x="150" y="370" width="60" height="10" as="geometry" />
        </mxCell>
        <mxCell id="Yj-2tN5jG5h_alvIyrq5-14" value="R2" style="text;html=1;strokeColor=none;fillColor=none;align=left;verticalAlign=middle;whiteSpace=wrap;rounded=0;" vertex="1" parent="1">
          <mxGeometry x="190" y="370" width="60" height="10" as="geometry" />
        </mxCell>
        <mxCell id="Yj-2tN5jG5h_alvIyrq5-15" value="R3" style="text;html=1;strokeColor=none;fillColor=none;align=left;verticalAlign=middle;whiteSpace=wrap;rounded=0;" vertex="1" parent="1">
          <mxGeometry x="270" y="370" width="60" height="10" as="geometry" />
        </mxCell>
        <mxCell id="Yj-2tN5jG5h_alvIyrq5-16" value="R4" style="text;html=1;strokeColor=none;fillColor=none;align=left;verticalAlign=middle;whiteSpace=wrap;rounded=0;" vertex="1" parent="1">
          <mxGeometry x="430" y="370" width="60" height="10" as="geometry" />
        </mxCell>
        <mxCell id="Yj-2tN5jG5h_alvIyrq5-19" value="Note:&lt;br&gt;More Features = More QA Effort&lt;br&gt;(often exponentially)&lt;br&gt;&amp;nbsp;required before each release, &lt;br&gt;if doing&amp;nbsp;QA by hand.this enlarges&lt;br&gt;each subsequent release window required &lt;br&gt;" style="text;html=1;strokeColor=none;fillColor=none;align=left;verticalAlign=middle;whiteSpace=wrap;rounded=0;fontStyle=2" vertex="1" parent="1">
          <mxGeometry x="480" y="290" width="250" height="30" as="geometry" />
        </mxCell>
      </root>
    </mxGraphModel>
  </diagram>
</mxfile>
